# xmcd CD database file
#
# Track frame offsets:
#	150
#	16725
#	37107
#	49765
#	60092
#	77577
#	88300
#	104297
#	112787
#	130642
#	144382
#	155235
#	167395
#	186657
#
# Disc length: 2722 seconds
#
# Revision: 0
# Processed by: cddbd v1.4PL0 Copyright (c) Steve Scherf et al.
# Submitted via: CDex 1.51
#
DISCID=ad0aa00e
DTITLE=The Chicago String Band - The Chicago String Band
DYEAR=1966
DGENRE=Blues
TTITLE0=The Sun Is Sinking Low
TTITLE1=Trouble On Your Hands
TTITLE2=Weeping and Moaning
TTITLE3=You Know I Do
TTITLE4=Hoodoo Blues
TTITLE5=You Got Good Business
TTITLE6=Take It Easy Baby
TTITLE7=I Got To Find That Woman
TTITLE8=Clean Cut Mama
TTITLE9=Railroad Blues
TTITLE10=Don't Sic Your Dog On Me
TTITLE11=John Henry
TTITLE12=Memphis,Tenn.,1939 Blues
TTITLE13=Bye Bye Pete
EXTD=YEAR: 1966
EXTT0=
EXTT1=
EXTT2=
EXTT3=
EXTT4=
EXTT5=
EXTT6=
EXTT7=
EXTT8=
EXTT9=
EXTT10=
EXTT11=
EXTT12=
EXTT13=
PLAYORDER=
